# xmcd
#
# Track frame offsets: 
#        150
#        14664
#        28114
#        39402
#        49574
#        59163
#        70857
#        84667
#        100304
#
# Disc length: 1524 seconds
#
# Revision: 0
# Processed by: cddbd v1.5.1PL0 Copyright (c) Steve Scherf et al.
# Submitted via: ExactAudioCopy v0.95b3
#
DISCID=7905f209
DTITLE=Hank Williams III - Louisville, KY 
DYEAR=2002
DGENRE=Punk
TTITLE0=01 - Smoke and Wine 
TTITLE1=02 - I Don't Know 
TTITLE2=03 - Poor Boy Blues 
TTITLE3=04 - Straight To Hell 
TTITLE4=05 - This Old Town 
TTITLE5=06 - If You Don't Like Hank Williams 
TTITLE6=07 - Trashville 
TTITLE7=08 - Dick in Dixie 
TTITLE8=09 - Tennessee Driver
EXTD=
EXTT0=
EXTT1=
EXTT2=
EXTT3=
EXTT4=
EXTT5=
EXTT6=
EXTT7=
EXTT8=
PLAYORDER=
